%TF.GenerationSoftware,KiCad,Pcbnew,(5.99.0-12548-gc9aebb8529)*%
%TF.CreationDate,2021-09-28T22:04:13-04:00*%
%TF.ProjectId,TeensyWheel,5465656e-7379-4576-9865-656c2e6b6963,rev?*%
%TF.SameCoordinates,Original*%
%TF.FileFunction,Legend,Top*%
%TF.FilePolarity,Positive*%
%FSLAX46Y46*%
G04 Gerber Fmt 4.6, Leading zero omitted, Abs format (unit mm)*
G04 Created by KiCad (PCBNEW (5.99.0-12548-gc9aebb8529)) date 2021-09-28 22:04:13*
%MOMM*%
%LPD*%
G01*
G04 APERTURE LIST*
%ADD10C,0.150000*%
%ADD11C,0.120000*%
G04 APERTURE END LIST*
D10*
%TO.C,SW12*%
X62190476Y-103344761D02*
X62333333Y-103392380D01*
X62571428Y-103392380D01*
X62666666Y-103344761D01*
X62714285Y-103297142D01*
X62761904Y-103201904D01*
X62761904Y-103106666D01*
X62714285Y-103011428D01*
X62666666Y-102963809D01*
X62571428Y-102916190D01*
X62380952Y-102868571D01*
X62285714Y-102820952D01*
X62238095Y-102773333D01*
X62190476Y-102678095D01*
X62190476Y-102582857D01*
X62238095Y-102487619D01*
X62285714Y-102440000D01*
X62380952Y-102392380D01*
X62619047Y-102392380D01*
X62761904Y-102440000D01*
X63095238Y-102392380D02*
X63333333Y-103392380D01*
X63523809Y-102678095D01*
X63714285Y-103392380D01*
X63952380Y-102392380D01*
X64857142Y-103392380D02*
X64285714Y-103392380D01*
X64571428Y-103392380D02*
X64571428Y-102392380D01*
X64476190Y-102535238D01*
X64380952Y-102630476D01*
X64285714Y-102678095D01*
X65238095Y-102487619D02*
X65285714Y-102440000D01*
X65380952Y-102392380D01*
X65619047Y-102392380D01*
X65714285Y-102440000D01*
X65761904Y-102487619D01*
X65809523Y-102582857D01*
X65809523Y-102678095D01*
X65761904Y-102820952D01*
X65190476Y-103392380D01*
X65809523Y-103392380D01*
%TO.C,SW3*%
X61356666Y-129104761D02*
X61499523Y-129152380D01*
X61737619Y-129152380D01*
X61832857Y-129104761D01*
X61880476Y-129057142D01*
X61928095Y-128961904D01*
X61928095Y-128866666D01*
X61880476Y-128771428D01*
X61832857Y-128723809D01*
X61737619Y-128676190D01*
X61547142Y-128628571D01*
X61451904Y-128580952D01*
X61404285Y-128533333D01*
X61356666Y-128438095D01*
X61356666Y-128342857D01*
X61404285Y-128247619D01*
X61451904Y-128200000D01*
X61547142Y-128152380D01*
X61785238Y-128152380D01*
X61928095Y-128200000D01*
X62261428Y-128152380D02*
X62499523Y-129152380D01*
X62690000Y-128438095D01*
X62880476Y-129152380D01*
X63118571Y-128152380D01*
X63404285Y-128152380D02*
X64023333Y-128152380D01*
X63690000Y-128533333D01*
X63832857Y-128533333D01*
X63928095Y-128580952D01*
X63975714Y-128628571D01*
X64023333Y-128723809D01*
X64023333Y-128961904D01*
X63975714Y-129057142D01*
X63928095Y-129104761D01*
X63832857Y-129152380D01*
X63547142Y-129152380D01*
X63451904Y-129104761D01*
X63404285Y-129057142D01*
%TO.C,SW6*%
X46686666Y-118544761D02*
X46829523Y-118592380D01*
X47067619Y-118592380D01*
X47162857Y-118544761D01*
X47210476Y-118497142D01*
X47258095Y-118401904D01*
X47258095Y-118306666D01*
X47210476Y-118211428D01*
X47162857Y-118163809D01*
X47067619Y-118116190D01*
X46877142Y-118068571D01*
X46781904Y-118020952D01*
X46734285Y-117973333D01*
X46686666Y-117878095D01*
X46686666Y-117782857D01*
X46734285Y-117687619D01*
X46781904Y-117640000D01*
X46877142Y-117592380D01*
X47115238Y-117592380D01*
X47258095Y-117640000D01*
X47591428Y-117592380D02*
X47829523Y-118592380D01*
X48020000Y-117878095D01*
X48210476Y-118592380D01*
X48448571Y-117592380D01*
X49258095Y-117592380D02*
X49067619Y-117592380D01*
X48972380Y-117640000D01*
X48924761Y-117687619D01*
X48829523Y-117830476D01*
X48781904Y-118020952D01*
X48781904Y-118401904D01*
X48829523Y-118497142D01*
X48877142Y-118544761D01*
X48972380Y-118592380D01*
X49162857Y-118592380D01*
X49258095Y-118544761D01*
X49305714Y-118497142D01*
X49353333Y-118401904D01*
X49353333Y-118163809D01*
X49305714Y-118068571D01*
X49258095Y-118020952D01*
X49162857Y-117973333D01*
X48972380Y-117973333D01*
X48877142Y-118020952D01*
X48829523Y-118068571D01*
X48781904Y-118163809D01*
%TO.C,SW2*%
X71286666Y-137064761D02*
X71429523Y-137112380D01*
X71667619Y-137112380D01*
X71762857Y-137064761D01*
X71810476Y-137017142D01*
X71858095Y-136921904D01*
X71858095Y-136826666D01*
X71810476Y-136731428D01*
X71762857Y-136683809D01*
X71667619Y-136636190D01*
X71477142Y-136588571D01*
X71381904Y-136540952D01*
X71334285Y-136493333D01*
X71286666Y-136398095D01*
X71286666Y-136302857D01*
X71334285Y-136207619D01*
X71381904Y-136160000D01*
X71477142Y-136112380D01*
X71715238Y-136112380D01*
X71858095Y-136160000D01*
X72191428Y-136112380D02*
X72429523Y-137112380D01*
X72620000Y-136398095D01*
X72810476Y-137112380D01*
X73048571Y-136112380D01*
X73381904Y-136207619D02*
X73429523Y-136160000D01*
X73524761Y-136112380D01*
X73762857Y-136112380D01*
X73858095Y-136160000D01*
X73905714Y-136207619D01*
X73953333Y-136302857D01*
X73953333Y-136398095D01*
X73905714Y-136540952D01*
X73334285Y-137112380D01*
X73953333Y-137112380D01*
%TO.C,SW4*%
X79606666Y-127504761D02*
X79749523Y-127552380D01*
X79987619Y-127552380D01*
X80082857Y-127504761D01*
X80130476Y-127457142D01*
X80178095Y-127361904D01*
X80178095Y-127266666D01*
X80130476Y-127171428D01*
X80082857Y-127123809D01*
X79987619Y-127076190D01*
X79797142Y-127028571D01*
X79701904Y-126980952D01*
X79654285Y-126933333D01*
X79606666Y-126838095D01*
X79606666Y-126742857D01*
X79654285Y-126647619D01*
X79701904Y-126600000D01*
X79797142Y-126552380D01*
X80035238Y-126552380D01*
X80178095Y-126600000D01*
X80511428Y-126552380D02*
X80749523Y-127552380D01*
X80940000Y-126838095D01*
X81130476Y-127552380D01*
X81368571Y-126552380D01*
X82178095Y-126885714D02*
X82178095Y-127552380D01*
X81940000Y-126504761D02*
X81701904Y-127219047D01*
X82320952Y-127219047D01*
%TO.C,SW11*%
X56550476Y-152164761D02*
X56693333Y-152212380D01*
X56931428Y-152212380D01*
X57026666Y-152164761D01*
X57074285Y-152117142D01*
X57121904Y-152021904D01*
X57121904Y-151926666D01*
X57074285Y-151831428D01*
X57026666Y-151783809D01*
X56931428Y-151736190D01*
X56740952Y-151688571D01*
X56645714Y-151640952D01*
X56598095Y-151593333D01*
X56550476Y-151498095D01*
X56550476Y-151402857D01*
X56598095Y-151307619D01*
X56645714Y-151260000D01*
X56740952Y-151212380D01*
X56979047Y-151212380D01*
X57121904Y-151260000D01*
X57455238Y-151212380D02*
X57693333Y-152212380D01*
X57883809Y-151498095D01*
X58074285Y-152212380D01*
X58312380Y-151212380D01*
X59217142Y-152212380D02*
X58645714Y-152212380D01*
X58931428Y-152212380D02*
X58931428Y-151212380D01*
X58836190Y-151355238D01*
X58740952Y-151450476D01*
X58645714Y-151498095D01*
X60169523Y-152212380D02*
X59598095Y-152212380D01*
X59883809Y-152212380D02*
X59883809Y-151212380D01*
X59788571Y-151355238D01*
X59693333Y-151450476D01*
X59598095Y-151498095D01*
%TO.C,SW10*%
X45920476Y-142454761D02*
X46063333Y-142502380D01*
X46301428Y-142502380D01*
X46396666Y-142454761D01*
X46444285Y-142407142D01*
X46491904Y-142311904D01*
X46491904Y-142216666D01*
X46444285Y-142121428D01*
X46396666Y-142073809D01*
X46301428Y-142026190D01*
X46110952Y-141978571D01*
X46015714Y-141930952D01*
X45968095Y-141883333D01*
X45920476Y-141788095D01*
X45920476Y-141692857D01*
X45968095Y-141597619D01*
X46015714Y-141550000D01*
X46110952Y-141502380D01*
X46349047Y-141502380D01*
X46491904Y-141550000D01*
X46825238Y-141502380D02*
X47063333Y-142502380D01*
X47253809Y-141788095D01*
X47444285Y-142502380D01*
X47682380Y-141502380D01*
X48587142Y-142502380D02*
X48015714Y-142502380D01*
X48301428Y-142502380D02*
X48301428Y-141502380D01*
X48206190Y-141645238D01*
X48110952Y-141740476D01*
X48015714Y-141788095D01*
X49206190Y-141502380D02*
X49301428Y-141502380D01*
X49396666Y-141550000D01*
X49444285Y-141597619D01*
X49491904Y-141692857D01*
X49539523Y-141883333D01*
X49539523Y-142121428D01*
X49491904Y-142311904D01*
X49444285Y-142407142D01*
X49396666Y-142454761D01*
X49301428Y-142502380D01*
X49206190Y-142502380D01*
X49110952Y-142454761D01*
X49063333Y-142407142D01*
X49015714Y-142311904D01*
X48968095Y-142121428D01*
X48968095Y-141883333D01*
X49015714Y-141692857D01*
X49063333Y-141597619D01*
X49110952Y-141550000D01*
X49206190Y-141502380D01*
%TO.C,SW9*%
X84656666Y-106134761D02*
X84799523Y-106182380D01*
X85037619Y-106182380D01*
X85132857Y-106134761D01*
X85180476Y-106087142D01*
X85228095Y-105991904D01*
X85228095Y-105896666D01*
X85180476Y-105801428D01*
X85132857Y-105753809D01*
X85037619Y-105706190D01*
X84847142Y-105658571D01*
X84751904Y-105610952D01*
X84704285Y-105563333D01*
X84656666Y-105468095D01*
X84656666Y-105372857D01*
X84704285Y-105277619D01*
X84751904Y-105230000D01*
X84847142Y-105182380D01*
X85085238Y-105182380D01*
X85228095Y-105230000D01*
X85561428Y-105182380D02*
X85799523Y-106182380D01*
X85990000Y-105468095D01*
X86180476Y-106182380D01*
X86418571Y-105182380D01*
X86847142Y-106182380D02*
X87037619Y-106182380D01*
X87132857Y-106134761D01*
X87180476Y-106087142D01*
X87275714Y-105944285D01*
X87323333Y-105753809D01*
X87323333Y-105372857D01*
X87275714Y-105277619D01*
X87228095Y-105230000D01*
X87132857Y-105182380D01*
X86942380Y-105182380D01*
X86847142Y-105230000D01*
X86799523Y-105277619D01*
X86751904Y-105372857D01*
X86751904Y-105610952D01*
X86799523Y-105706190D01*
X86847142Y-105753809D01*
X86942380Y-105801428D01*
X87132857Y-105801428D01*
X87228095Y-105753809D01*
X87275714Y-105706190D01*
X87323333Y-105610952D01*
%TO.C,SW8*%
X53256666Y-109204761D02*
X53399523Y-109252380D01*
X53637619Y-109252380D01*
X53732857Y-109204761D01*
X53780476Y-109157142D01*
X53828095Y-109061904D01*
X53828095Y-108966666D01*
X53780476Y-108871428D01*
X53732857Y-108823809D01*
X53637619Y-108776190D01*
X53447142Y-108728571D01*
X53351904Y-108680952D01*
X53304285Y-108633333D01*
X53256666Y-108538095D01*
X53256666Y-108442857D01*
X53304285Y-108347619D01*
X53351904Y-108300000D01*
X53447142Y-108252380D01*
X53685238Y-108252380D01*
X53828095Y-108300000D01*
X54161428Y-108252380D02*
X54399523Y-109252380D01*
X54590000Y-108538095D01*
X54780476Y-109252380D01*
X55018571Y-108252380D01*
X55542380Y-108680952D02*
X55447142Y-108633333D01*
X55399523Y-108585714D01*
X55351904Y-108490476D01*
X55351904Y-108442857D01*
X55399523Y-108347619D01*
X55447142Y-108300000D01*
X55542380Y-108252380D01*
X55732857Y-108252380D01*
X55828095Y-108300000D01*
X55875714Y-108347619D01*
X55923333Y-108442857D01*
X55923333Y-108490476D01*
X55875714Y-108585714D01*
X55828095Y-108633333D01*
X55732857Y-108680952D01*
X55542380Y-108680952D01*
X55447142Y-108728571D01*
X55399523Y-108776190D01*
X55351904Y-108871428D01*
X55351904Y-109061904D01*
X55399523Y-109157142D01*
X55447142Y-109204761D01*
X55542380Y-109252380D01*
X55732857Y-109252380D01*
X55828095Y-109204761D01*
X55875714Y-109157142D01*
X55923333Y-109061904D01*
X55923333Y-108871428D01*
X55875714Y-108776190D01*
X55828095Y-108728571D01*
X55732857Y-108680952D01*
%TO.C,D1*%
X89121904Y-143412380D02*
X89121904Y-142412380D01*
X89360000Y-142412380D01*
X89502857Y-142460000D01*
X89598095Y-142555238D01*
X89645714Y-142650476D01*
X89693333Y-142840952D01*
X89693333Y-142983809D01*
X89645714Y-143174285D01*
X89598095Y-143269523D01*
X89502857Y-143364761D01*
X89360000Y-143412380D01*
X89121904Y-143412380D01*
X90645714Y-143412380D02*
X90074285Y-143412380D01*
X90360000Y-143412380D02*
X90360000Y-142412380D01*
X90264761Y-142555238D01*
X90169523Y-142650476D01*
X90074285Y-142698095D01*
%TO.C,SW7*%
X92316666Y-122694761D02*
X92459523Y-122742380D01*
X92697619Y-122742380D01*
X92792857Y-122694761D01*
X92840476Y-122647142D01*
X92888095Y-122551904D01*
X92888095Y-122456666D01*
X92840476Y-122361428D01*
X92792857Y-122313809D01*
X92697619Y-122266190D01*
X92507142Y-122218571D01*
X92411904Y-122170952D01*
X92364285Y-122123333D01*
X92316666Y-122028095D01*
X92316666Y-121932857D01*
X92364285Y-121837619D01*
X92411904Y-121790000D01*
X92507142Y-121742380D01*
X92745238Y-121742380D01*
X92888095Y-121790000D01*
X93221428Y-121742380D02*
X93459523Y-122742380D01*
X93650000Y-122028095D01*
X93840476Y-122742380D01*
X94078571Y-121742380D01*
X94364285Y-121742380D02*
X95030952Y-121742380D01*
X94602380Y-122742380D01*
%TO.C,SW1*%
X69906666Y-119534761D02*
X70049523Y-119582380D01*
X70287619Y-119582380D01*
X70382857Y-119534761D01*
X70430476Y-119487142D01*
X70478095Y-119391904D01*
X70478095Y-119296666D01*
X70430476Y-119201428D01*
X70382857Y-119153809D01*
X70287619Y-119106190D01*
X70097142Y-119058571D01*
X70001904Y-119010952D01*
X69954285Y-118963333D01*
X69906666Y-118868095D01*
X69906666Y-118772857D01*
X69954285Y-118677619D01*
X70001904Y-118630000D01*
X70097142Y-118582380D01*
X70335238Y-118582380D01*
X70478095Y-118630000D01*
X70811428Y-118582380D02*
X71049523Y-119582380D01*
X71240000Y-118868095D01*
X71430476Y-119582380D01*
X71668571Y-118582380D01*
X72573333Y-119582380D02*
X72001904Y-119582380D01*
X72287619Y-119582380D02*
X72287619Y-118582380D01*
X72192380Y-118725238D01*
X72097142Y-118820476D01*
X72001904Y-118868095D01*
%TO.C,SW14*%
X93630476Y-132954761D02*
X93773333Y-133002380D01*
X94011428Y-133002380D01*
X94106666Y-132954761D01*
X94154285Y-132907142D01*
X94201904Y-132811904D01*
X94201904Y-132716666D01*
X94154285Y-132621428D01*
X94106666Y-132573809D01*
X94011428Y-132526190D01*
X93820952Y-132478571D01*
X93725714Y-132430952D01*
X93678095Y-132383333D01*
X93630476Y-132288095D01*
X93630476Y-132192857D01*
X93678095Y-132097619D01*
X93725714Y-132050000D01*
X93820952Y-132002380D01*
X94059047Y-132002380D01*
X94201904Y-132050000D01*
X94535238Y-132002380D02*
X94773333Y-133002380D01*
X94963809Y-132288095D01*
X95154285Y-133002380D01*
X95392380Y-132002380D01*
X96297142Y-133002380D02*
X95725714Y-133002380D01*
X96011428Y-133002380D02*
X96011428Y-132002380D01*
X95916190Y-132145238D01*
X95820952Y-132240476D01*
X95725714Y-132288095D01*
X97154285Y-132335714D02*
X97154285Y-133002380D01*
X96916190Y-131954761D02*
X96678095Y-132669047D01*
X97297142Y-132669047D01*
%TO.C,SW5*%
X82718666Y-149002761D02*
X82861523Y-149050380D01*
X83099619Y-149050380D01*
X83194857Y-149002761D01*
X83242476Y-148955142D01*
X83290095Y-148859904D01*
X83290095Y-148764666D01*
X83242476Y-148669428D01*
X83194857Y-148621809D01*
X83099619Y-148574190D01*
X82909142Y-148526571D01*
X82813904Y-148478952D01*
X82766285Y-148431333D01*
X82718666Y-148336095D01*
X82718666Y-148240857D01*
X82766285Y-148145619D01*
X82813904Y-148098000D01*
X82909142Y-148050380D01*
X83147238Y-148050380D01*
X83290095Y-148098000D01*
X83623428Y-148050380D02*
X83861523Y-149050380D01*
X84052000Y-148336095D01*
X84242476Y-149050380D01*
X84480571Y-148050380D01*
X85337714Y-148050380D02*
X84861523Y-148050380D01*
X84813904Y-148526571D01*
X84861523Y-148478952D01*
X84956761Y-148431333D01*
X85194857Y-148431333D01*
X85290095Y-148478952D01*
X85337714Y-148526571D01*
X85385333Y-148621809D01*
X85385333Y-148859904D01*
X85337714Y-148955142D01*
X85290095Y-149002761D01*
X85194857Y-149050380D01*
X84956761Y-149050380D01*
X84861523Y-149002761D01*
X84813904Y-148955142D01*
%TO.C,SW13*%
X77250476Y-103364761D02*
X77393333Y-103412380D01*
X77631428Y-103412380D01*
X77726666Y-103364761D01*
X77774285Y-103317142D01*
X77821904Y-103221904D01*
X77821904Y-103126666D01*
X77774285Y-103031428D01*
X77726666Y-102983809D01*
X77631428Y-102936190D01*
X77440952Y-102888571D01*
X77345714Y-102840952D01*
X77298095Y-102793333D01*
X77250476Y-102698095D01*
X77250476Y-102602857D01*
X77298095Y-102507619D01*
X77345714Y-102460000D01*
X77440952Y-102412380D01*
X77679047Y-102412380D01*
X77821904Y-102460000D01*
X78155238Y-102412380D02*
X78393333Y-103412380D01*
X78583809Y-102698095D01*
X78774285Y-103412380D01*
X79012380Y-102412380D01*
X79917142Y-103412380D02*
X79345714Y-103412380D01*
X79631428Y-103412380D02*
X79631428Y-102412380D01*
X79536190Y-102555238D01*
X79440952Y-102650476D01*
X79345714Y-102698095D01*
X80250476Y-102412380D02*
X80869523Y-102412380D01*
X80536190Y-102793333D01*
X80679047Y-102793333D01*
X80774285Y-102840952D01*
X80821904Y-102888571D01*
X80869523Y-102983809D01*
X80869523Y-103221904D01*
X80821904Y-103317142D01*
X80774285Y-103364761D01*
X80679047Y-103412380D01*
X80393333Y-103412380D01*
X80298095Y-103364761D01*
X80250476Y-103317142D01*
D11*
%TO.C,D1*%
X85910000Y-143984000D02*
X85910000Y-144140000D01*
X85910000Y-146300000D02*
X85910000Y-146456000D01*
X88511130Y-146299837D02*
G75*
G02*
X86429039Y-146300000I-1041130J1079837D01*
G01*
X88511130Y-144140163D02*
G75*
G03*
X86429039Y-144140000I-1041130J-1079837D01*
G01*
X89142335Y-146298608D02*
G75*
G02*
X85910000Y-146455516I-1672335J1078608D01*
G01*
X89142335Y-144141392D02*
G75*
G03*
X85910000Y-143984484I-1672335J-1078608D01*
G01*
%TD*%
M02*
