%TF.GenerationSoftware,KiCad,Pcbnew,(5.99.0-12548-gc9aebb8529)*%
%TF.CreationDate,2021-09-28T22:04:13-04:00*%
%TF.ProjectId,TeensyWheel,5465656e-7379-4576-9865-656c2e6b6963,rev?*%
%TF.SameCoordinates,Original*%
%TF.FileFunction,Soldermask,Top*%
%TF.FilePolarity,Negative*%
%FSLAX46Y46*%
G04 Gerber Fmt 4.6, Leading zero omitted, Abs format (unit mm)*
G04 Created by KiCad (PCBNEW (5.99.0-12548-gc9aebb8529)) date 2021-09-28 22:04:13*
%MOMM*%
%LPD*%
G01*
G04 APERTURE LIST*
G04 Aperture macros list*
%AMRoundRect*
0 Rectangle with rounded corners*
0 $1 Rounding radius*
0 $2 $3 $4 $5 $6 $7 $8 $9 X,Y pos of 4 corners*
0 Add a 4 corners polygon primitive as box body*
4,1,4,$2,$3,$4,$5,$6,$7,$8,$9,$2,$3,0*
0 Add four circle primitives for the rounded corners*
1,1,$1+$1,$2,$3*
1,1,$1+$1,$4,$5*
1,1,$1+$1,$6,$7*
1,1,$1+$1,$8,$9*
0 Add four rect primitives between the rounded corners*
20,1,$1+$1,$2,$3,$4,$5,0*
20,1,$1+$1,$4,$5,$6,$7,0*
20,1,$1+$1,$6,$7,$8,$9,0*
20,1,$1+$1,$8,$9,$2,$3,0*%
%AMHorizOval*
0 Thick line with rounded ends*
0 $1 width*
0 $2 $3 position (X,Y) of the first rounded end (center of the circle)*
0 $4 $5 position (X,Y) of the second rounded end (center of the circle)*
0 Add line between two ends*
20,1,$1,$2,$3,$4,$5,0*
0 Add two circle primitives to create the rounded ends*
1,1,$1,$2,$3*
1,1,$1,$4,$5*%
%AMFreePoly0*
4,1,44,0.003358,3.345106,0.030902,3.345106,0.033872,3.342948,0.037534,3.342689,0.058616,3.324970,0.080902,3.308779,0.082037,3.305287,0.084847,3.302925,0.091489,3.276193,0.100000,3.250000,0.100000,-3.250000,0.091489,-3.276193,0.084847,-3.302925,0.082037,-3.305287,0.080902,-3.308779,0.058616,-3.324970,0.037534,-3.342689,0.033872,-3.342948,0.030902,-3.345106,0.003358,-3.345106,
-0.024116,-3.347049,-1.018116,-3.100049,-1.032868,-3.090847,-1.049597,-3.086120,-2.103597,-2.381120,-2.115723,-2.365723,-2.131120,-2.353597,-2.836120,-1.299597,-2.841472,-1.280654,-2.851085,-1.263475,-3.098085,-0.019475,-3.095773,0.000000,-3.098085,0.019475,-2.851085,1.263475,-2.841472,1.280654,-2.836120,1.299597,-2.131120,2.353597,-2.115723,2.365723,-2.103597,2.381120,-1.049597,3.086120,
-1.032868,3.090847,-1.018116,3.100049,-0.024116,3.347049,0.003358,3.345106,0.003358,3.345106,$1*%
G04 Aperture macros list end*
%ADD10C,3.360000*%
%ADD11C,1.400000*%
%ADD12FreePoly0,0.000000*%
%ADD13FreePoly0,180.000000*%
%ADD14C,3.200000*%
%ADD15R,1.800000X1.800000*%
%ADD16C,1.800000*%
%ADD17C,1.524000*%
%ADD18RoundRect,0.250000X-0.600000X-0.725000X0.600000X-0.725000X0.600000X0.725000X-0.600000X0.725000X0*%
%ADD19O,1.700000X1.950000*%
%ADD20RoundRect,0.250000X-0.936916X-0.088388X-0.088388X-0.936916X0.936916X0.088388X0.088388X0.936916X0*%
%ADD21HorizOval,1.700000X-0.088388X-0.088388X0.088388X0.088388X0*%
%ADD22RoundRect,0.250000X-0.350000X-0.625000X0.350000X-0.625000X0.350000X0.625000X-0.350000X0.625000X0*%
%ADD23O,1.200000X1.750000*%
%ADD24RoundRect,0.250000X0.600000X0.725000X-0.600000X0.725000X-0.600000X-0.725000X0.600000X-0.725000X0*%
%ADD25C,1.308000*%
%ADD26C,1.258000*%
%ADD27C,1.208000*%
%ADD28RoundRect,0.250000X-0.725000X0.600000X-0.725000X-0.600000X0.725000X-0.600000X0.725000X0.600000X0*%
%ADD29O,1.950000X1.700000*%
G04 APERTURE END LIST*
%TO.C,SW12*%
D10*
X65620000Y-107520000D02*
G75*
G03*
X65620000Y-107520000I-1680000J0D01*
G01*
%TO.C,SW3*%
X64690000Y-132990000D02*
G75*
G03*
X64690000Y-132990000I-1680000J0D01*
G01*
%TO.C,SW6*%
X49590000Y-122400000D02*
G75*
G03*
X49590000Y-122400000I-1680000J0D01*
G01*
%TO.C,SW2*%
X74440000Y-141020000D02*
G75*
G03*
X74440000Y-141020000I-1680000J0D01*
G01*
%TO.C,SW4*%
X82490000Y-131380000D02*
G75*
G03*
X82490000Y-131380000I-1680000J0D01*
G01*
%TO.C,SW11*%
X59820000Y-156260000D02*
G75*
G03*
X59820000Y-156260000I-1680000J0D01*
G01*
%TO.C,SW10*%
X49660000Y-146670000D02*
G75*
G03*
X49660000Y-146670000I-1680000J0D01*
G01*
%TO.C,SW9*%
X87410000Y-110330000D02*
G75*
G03*
X87410000Y-110330000I-1680000J0D01*
G01*
%TO.C,SW8*%
X56130000Y-113220000D02*
G75*
G03*
X56130000Y-113220000I-1680000J0D01*
G01*
%TO.C,SW7*%
X95300000Y-117930000D02*
G75*
G03*
X95300000Y-117930000I-1680000J0D01*
G01*
%TO.C,SW1*%
X72810000Y-123350000D02*
G75*
G03*
X72810000Y-123350000I-1680000J0D01*
G01*
%TO.C,SW14*%
X97300000Y-136790000D02*
G75*
G03*
X97300000Y-136790000I-1680000J0D01*
G01*
%TO.C,SW13*%
X76950000Y-106620000D02*
G75*
G03*
X76950000Y-106620000I-1680000J0D01*
G01*
%TD*%
D11*
%TO.C,REF\u002A\u002A*%
X69460000Y-107810000D03*
%TD*%
%TO.C,REF\u002A\u002A*%
X47570000Y-138590000D03*
%TD*%
D12*
%TO.C,SW12*%
X63690000Y-107520000D03*
D13*
X64190000Y-107520000D03*
%TD*%
D12*
%TO.C,SW3*%
X62760000Y-132990000D03*
D13*
X63260000Y-132990000D03*
%TD*%
D12*
%TO.C,SW6*%
X47660000Y-122400000D03*
D13*
X48160000Y-122400000D03*
%TD*%
D12*
%TO.C,SW2*%
X72510000Y-141020000D03*
D13*
X73010000Y-141020000D03*
%TD*%
D14*
%TO.C,REF\u002A\u002A*%
X68690000Y-150400000D03*
%TD*%
D12*
%TO.C,SW4*%
X80560000Y-131380000D03*
D13*
X81060000Y-131380000D03*
%TD*%
D12*
%TO.C,SW11*%
X57890000Y-156260000D03*
D13*
X58390000Y-156260000D03*
%TD*%
D14*
%TO.C,REF\u002A\u002A*%
X46830000Y-131650000D03*
%TD*%
D12*
%TO.C,SW10*%
X47730000Y-146670000D03*
D13*
X48230000Y-146670000D03*
%TD*%
D12*
%TO.C,SW9*%
X85480000Y-110330000D03*
D13*
X85980000Y-110330000D03*
%TD*%
D12*
%TO.C,SW8*%
X54200000Y-113220000D03*
D13*
X54700000Y-113220000D03*
%TD*%
D14*
%TO.C,REF\u002A\u002A*%
X70230000Y-115120000D03*
%TD*%
D15*
%TO.C,D1*%
X84930000Y-145220000D03*
D16*
X87470000Y-145220000D03*
X90010000Y-145220000D03*
%TD*%
D11*
%TO.C,REF\u002A\u002A*%
X89960000Y-113770000D03*
%TD*%
D12*
%TO.C,SW7*%
X93370000Y-117930000D03*
D13*
X93870000Y-117930000D03*
%TD*%
D11*
%TO.C,REF\u002A\u002A*%
X94800000Y-129320000D03*
%TD*%
D12*
%TO.C,SW1*%
X70880000Y-123350000D03*
D13*
X71380000Y-123350000D03*
%TD*%
D14*
%TO.C,REF\u002A\u002A*%
X90100000Y-127070000D03*
%TD*%
D11*
%TO.C,REF\u002A\u002A*%
X53010000Y-151280000D03*
%TD*%
D12*
%TO.C,SW14*%
X95370000Y-136790000D03*
D13*
X95870000Y-136790000D03*
%TD*%
D17*
%TO.C,SW5*%
X83290000Y-155710000D03*
X85830000Y-155710000D03*
X88370000Y-155710000D03*
X93450000Y-155710000D03*
X83290000Y-153170000D03*
X85830000Y-153170000D03*
X88370000Y-153170000D03*
X93450000Y-153170000D03*
%TD*%
D12*
%TO.C,SW13*%
X75020000Y-106620000D03*
D13*
X75520000Y-106620000D03*
%TD*%
D18*
%TO.C,J5*%
X80080000Y-140820000D03*
D19*
X82580000Y-140820000D03*
X85080000Y-140820000D03*
X87580000Y-140820000D03*
X90080000Y-140820000D03*
%TD*%
D20*
%TO.C,J2*%
X90006218Y-102570482D03*
D21*
X91773985Y-104338249D03*
X93541752Y-106106016D03*
X95309519Y-107873783D03*
%TD*%
D22*
%TO.C,J3*%
X77280000Y-158940000D03*
D23*
X79280000Y-158940000D03*
X81280000Y-158940000D03*
X83280000Y-158940000D03*
X85280000Y-158940000D03*
X87280000Y-158940000D03*
X89280000Y-158940000D03*
X91280000Y-158940000D03*
X93280000Y-158940000D03*
X95280000Y-158940000D03*
X97280000Y-158940000D03*
%TD*%
D24*
%TO.C,J6*%
X75330000Y-100600000D03*
D19*
X72830000Y-100600000D03*
X70330000Y-100600000D03*
X67830000Y-100600000D03*
%TD*%
D25*
%TO.C,U1*%
X118970000Y-103630000D03*
X118970000Y-106170000D03*
X118970000Y-108710000D03*
X118970000Y-111250000D03*
X118970000Y-136650000D03*
X103730000Y-106170000D03*
X113890000Y-146810000D03*
X118970000Y-113790000D03*
X118970000Y-116330000D03*
D26*
X115920000Y-107440000D03*
D25*
X118970000Y-118870000D03*
X118970000Y-121410000D03*
X118970000Y-123950000D03*
X118970000Y-126490000D03*
X118970000Y-129030000D03*
X118970000Y-131570000D03*
X118970000Y-134110000D03*
X103730000Y-134110000D03*
X103730000Y-131570000D03*
X103730000Y-129030000D03*
X103730000Y-126490000D03*
X103730000Y-123950000D03*
X103730000Y-121410000D03*
X103730000Y-118870000D03*
X103730000Y-116330000D03*
X103730000Y-113790000D03*
X103730000Y-111250000D03*
X103730000Y-108710000D03*
X118970000Y-139190000D03*
X118970000Y-141730000D03*
X118970000Y-144270000D03*
X118970000Y-146810000D03*
X118970000Y-149350000D03*
X118970000Y-151890000D03*
X118970000Y-154430000D03*
X118970000Y-156970000D03*
X118970000Y-159510000D03*
X103730000Y-159510000D03*
X103730000Y-156970000D03*
X103730000Y-154430000D03*
X103730000Y-151890000D03*
X103730000Y-149350000D03*
X103730000Y-146810000D03*
X103730000Y-144270000D03*
X103730000Y-141730000D03*
X103730000Y-139190000D03*
D26*
X115920000Y-112520000D03*
X115920000Y-109980000D03*
D25*
X118970000Y-101090000D03*
X103730000Y-136650000D03*
X103730000Y-103630000D03*
X111350000Y-146810000D03*
D27*
X108180000Y-116060000D03*
X108180000Y-114060000D03*
D25*
X106270000Y-146810000D03*
X108810000Y-146810000D03*
D27*
X106180000Y-114060000D03*
X106180000Y-116060000D03*
X110180000Y-116060000D03*
X110180000Y-114060000D03*
D26*
X115920000Y-115060000D03*
X115920000Y-117600000D03*
D25*
X116430000Y-146810000D03*
X103730000Y-101090000D03*
X106270000Y-103630000D03*
%TD*%
D28*
%TO.C,J1*%
X99250000Y-113390000D03*
D29*
X99250000Y-115890000D03*
X99250000Y-118390000D03*
%TD*%
D28*
%TO.C,J4*%
X55220000Y-130130000D03*
D29*
X55220000Y-132630000D03*
X55220000Y-135130000D03*
X55220000Y-137630000D03*
X55220000Y-140130000D03*
%TD*%
M02*
