M48
; DRILL file {KiCad (5.99.0-12548-gc9aebb8529)} date Tue Sep 28 22:04:16 2021
; FORMAT={-:-/ absolute / inch / decimal}
; #@! TF.CreationDate,2021-09-28T22:04:16-04:00
; #@! TF.GenerationSoftware,Kicad,Pcbnew,(5.99.0-12548-gc9aebb8529)
; #@! TF.FileFunction,Plated,1,4,PTH
FMAT,2
INCH
; #@! TA.AperFunction,Plated,PTH,ViaDrill
T1C0.0157
; #@! TA.AperFunction,Plated,PTH,ComponentDrill
T2C0.0276
; #@! TA.AperFunction,Plated,PTH,ComponentDrill
T3C0.0295
; #@! TA.AperFunction,Plated,PTH,ComponentDrill
T4C0.0300
; #@! TA.AperFunction,Plated,PTH,ComponentDrill
T5C0.0315
; #@! TA.AperFunction,Plated,PTH,ComponentDrill
T6C0.0354
; #@! TA.AperFunction,Plated,PTH,ComponentDrill
T7C0.0374
%
G90
G05
T1
X2.0469Y-4.8189
X2.0531Y-5.7744
X2.3049Y-4.4575
X2.452Y-6.152
X2.6441Y-5.2358
X2.6441Y-4.2337
X2.7811Y-6.0818
X2.8472Y-6.081
X2.9496Y-6.0425
X2.9685Y-4.8567
X2.983Y-6.014
X2.9899Y-6.0712
X3.024Y-5.5476
X3.065Y-5.811
X3.1378Y-4.2165
X3.1455Y-6.014
X3.1922Y-5.3298
X3.3421Y-5.198
X3.3469Y-5.2772
X3.419Y-5.859
X3.4476Y-5.2819
X3.5469Y-5.2783
X3.5745Y-4.3538
X3.5874Y-5.8693
X3.6035Y-4.4331
X3.6542Y-4.4687
X3.7283Y-4.4846
X3.8394Y-4.6429
X3.8575Y-6.026
X3.9228Y-5.3854
X3.95Y-3.9894
X3.9909Y-5.365
T2
X4.1803Y-4.4906
X4.1803Y-4.5693
X4.2591Y-4.4906
X4.2591Y-4.5693
X4.3378Y-4.4906
X4.3378Y-4.5693
T3
X3.0425Y-6.2575
X3.1213Y-6.2575
X3.2Y-6.2575
X3.2787Y-6.2575
X3.3575Y-6.2575
X3.4362Y-6.2575
X3.515Y-6.2575
X3.5937Y-6.2575
X3.6724Y-6.2575
X3.7512Y-6.2575
X3.8299Y-6.2575
X4.5638Y-4.2299
X4.5638Y-4.3299
X4.5638Y-4.4299
X4.5638Y-4.5299
X4.5638Y-4.6299
T4
X3.2791Y-6.0303
X3.2791Y-6.1303
X3.3791Y-6.0303
X3.3791Y-6.1303
X3.4791Y-6.0303
X3.4791Y-6.1303
X3.6791Y-6.0303
X3.6791Y-6.1303
T5
X4.0839Y-3.9799
X4.0839Y-4.0799
X4.0839Y-4.1799
X4.0839Y-4.2799
X4.0839Y-4.3799
X4.0839Y-4.4799
X4.0839Y-4.5799
X4.0839Y-4.6799
X4.0839Y-4.7799
X4.0839Y-4.8799
X4.0839Y-4.9799
X4.0839Y-5.0799
X4.0839Y-5.1799
X4.0839Y-5.2799
X4.0839Y-5.3799
X4.0839Y-5.4799
X4.0839Y-5.5799
X4.0839Y-5.6799
X4.0839Y-5.7799
X4.0839Y-5.8799
X4.0839Y-5.9799
X4.0839Y-6.0799
X4.0839Y-6.1799
X4.0839Y-6.2799
X4.1839Y-4.0799
X4.1839Y-5.7799
X4.2839Y-5.7799
X4.3839Y-5.7799
X4.4839Y-5.7799
X4.5839Y-5.7799
X4.6839Y-3.9799
X4.6839Y-4.0799
X4.6839Y-4.1799
X4.6839Y-4.2799
X4.6839Y-4.3799
X4.6839Y-4.4799
X4.6839Y-4.5799
X4.6839Y-4.6799
X4.6839Y-4.7799
X4.6839Y-4.8799
X4.6839Y-4.9799
X4.6839Y-5.0799
X4.6839Y-5.1799
X4.6839Y-5.2799
X4.6839Y-5.3799
X4.6839Y-5.4799
X4.6839Y-5.5799
X4.6839Y-5.6799
X4.6839Y-5.7799
X4.6839Y-5.8799
X4.6839Y-5.9799
X4.6839Y-6.0799
X4.6839Y-6.1799
X4.6839Y-6.2799
T6
X3.3437Y-5.7173
X3.4437Y-5.7173
X3.5437Y-5.7173
T7
X2.174Y-5.1232
X2.174Y-5.2217
X2.174Y-5.3201
X2.174Y-5.4185
X2.174Y-5.5169
X2.6705Y-3.9606
X2.7689Y-3.9606
X2.8673Y-3.9606
X2.9657Y-3.9606
X3.1528Y-5.5441
X3.2512Y-5.5441
X3.3496Y-5.5441
X3.448Y-5.5441
X3.5436Y-4.0382
X3.5465Y-5.5441
X3.6131Y-4.1078
X3.6827Y-4.1774
X3.7523Y-4.247
X3.9075Y-4.4642
X3.9075Y-4.5626
X3.9075Y-4.661
T0
M30
