%TF.GenerationSoftware,KiCad,Pcbnew,(5.99.0-12548-gc9aebb8529)*%
%TF.CreationDate,2021-09-28T22:04:13-04:00*%
%TF.ProjectId,TeensyWheel,5465656e-7379-4576-9865-656c2e6b6963,rev?*%
%TF.SameCoordinates,Original*%
%TF.FileFunction,Soldermask,Bot*%
%TF.FilePolarity,Negative*%
%FSLAX46Y46*%
G04 Gerber Fmt 4.6, Leading zero omitted, Abs format (unit mm)*
G04 Created by KiCad (PCBNEW (5.99.0-12548-gc9aebb8529)) date 2021-09-28 22:04:13*
%MOMM*%
%LPD*%
G01*
G04 APERTURE LIST*
G04 Aperture macros list*
%AMRoundRect*
0 Rectangle with rounded corners*
0 $1 Rounding radius*
0 $2 $3 $4 $5 $6 $7 $8 $9 X,Y pos of 4 corners*
0 Add a 4 corners polygon primitive as box body*
4,1,4,$2,$3,$4,$5,$6,$7,$8,$9,$2,$3,0*
0 Add four circle primitives for the rounded corners*
1,1,$1+$1,$2,$3*
1,1,$1+$1,$4,$5*
1,1,$1+$1,$6,$7*
1,1,$1+$1,$8,$9*
0 Add four rect primitives between the rounded corners*
20,1,$1+$1,$2,$3,$4,$5,0*
20,1,$1+$1,$4,$5,$6,$7,0*
20,1,$1+$1,$6,$7,$8,$9,0*
20,1,$1+$1,$8,$9,$2,$3,0*%
%AMHorizOval*
0 Thick line with rounded ends*
0 $1 width*
0 $2 $3 position (X,Y) of the first rounded end (center of the circle)*
0 $4 $5 position (X,Y) of the second rounded end (center of the circle)*
0 Add line between two ends*
20,1,$1,$2,$3,$4,$5,0*
0 Add two circle primitives to create the rounded ends*
1,1,$1,$2,$3*
1,1,$1,$4,$5*%
G04 Aperture macros list end*
%ADD10C,1.400000*%
%ADD11C,3.200000*%
%ADD12R,1.800000X1.800000*%
%ADD13C,1.800000*%
%ADD14C,1.524000*%
%ADD15RoundRect,0.237500X-0.237500X0.300000X-0.237500X-0.300000X0.237500X-0.300000X0.237500X0.300000X0*%
%ADD16R,0.650000X0.400000*%
%ADD17RoundRect,0.237500X0.237500X-0.300000X0.237500X0.300000X-0.237500X0.300000X-0.237500X-0.300000X0*%
%ADD18RoundRect,0.250000X-0.600000X-0.725000X0.600000X-0.725000X0.600000X0.725000X-0.600000X0.725000X0*%
%ADD19O,1.700000X1.950000*%
%ADD20RoundRect,0.237500X-0.237500X0.250000X-0.237500X-0.250000X0.237500X-0.250000X0.237500X0.250000X0*%
%ADD21RoundRect,0.150000X0.150000X-0.587500X0.150000X0.587500X-0.150000X0.587500X-0.150000X-0.587500X0*%
%ADD22RoundRect,0.250000X-0.936916X-0.088388X-0.088388X-0.936916X0.936916X0.088388X0.088388X0.936916X0*%
%ADD23HorizOval,1.700000X-0.088388X-0.088388X0.088388X0.088388X0*%
%ADD24RoundRect,0.237500X0.250000X0.237500X-0.250000X0.237500X-0.250000X-0.237500X0.250000X-0.237500X0*%
%ADD25RoundRect,0.250000X-0.350000X-0.625000X0.350000X-0.625000X0.350000X0.625000X-0.350000X0.625000X0*%
%ADD26O,1.200000X1.750000*%
%ADD27RoundRect,0.250000X0.600000X0.725000X-0.600000X0.725000X-0.600000X-0.725000X0.600000X-0.725000X0*%
%ADD28C,1.308000*%
%ADD29C,1.258000*%
%ADD30C,1.208000*%
%ADD31RoundRect,0.250000X-0.725000X0.600000X-0.725000X-0.600000X0.725000X-0.600000X0.725000X0.600000X0*%
%ADD32O,1.950000X1.700000*%
%ADD33RoundRect,0.250000X-0.350000X0.275000X-0.350000X-0.275000X0.350000X-0.275000X0.350000X0.275000X0*%
G04 APERTURE END LIST*
D10*
%TO.C,REF\u002A\u002A*%
X69460000Y-107810000D03*
%TD*%
%TO.C,REF\u002A\u002A*%
X47570000Y-138590000D03*
%TD*%
D11*
%TO.C,REF\u002A\u002A*%
X68690000Y-150400000D03*
%TD*%
%TO.C,REF\u002A\u002A*%
X46830000Y-131650000D03*
%TD*%
%TO.C,REF\u002A\u002A*%
X70230000Y-115120000D03*
%TD*%
D12*
%TO.C,D1*%
X84930000Y-145220000D03*
D13*
X87470000Y-145220000D03*
X90010000Y-145220000D03*
%TD*%
D10*
%TO.C,REF\u002A\u002A*%
X89960000Y-113770000D03*
%TD*%
%TO.C,REF\u002A\u002A*%
X94800000Y-129320000D03*
%TD*%
D11*
%TO.C,REF\u002A\u002A*%
X90100000Y-127070000D03*
%TD*%
D10*
%TO.C,REF\u002A\u002A*%
X53010000Y-151280000D03*
%TD*%
D14*
%TO.C,SW5*%
X83290000Y-155710000D03*
X85830000Y-155710000D03*
X88370000Y-155710000D03*
X93450000Y-155710000D03*
X83290000Y-153170000D03*
X85830000Y-153170000D03*
X88370000Y-153170000D03*
X93450000Y-153170000D03*
%TD*%
D15*
%TO.C,C1*%
X96360000Y-112847500D03*
X96360000Y-114572500D03*
%TD*%
D16*
%TO.C,Q1*%
X78800000Y-152830000D03*
X78800000Y-153480000D03*
X78800000Y-154130000D03*
X76900000Y-154130000D03*
X76900000Y-153480000D03*
X76900000Y-152830000D03*
%TD*%
D17*
%TO.C,C6*%
X70640000Y-157420000D03*
X70640000Y-155695000D03*
%TD*%
D18*
%TO.C,J5*%
X80080000Y-140820000D03*
D19*
X82580000Y-140820000D03*
X85080000Y-140820000D03*
X87580000Y-140820000D03*
X90080000Y-140820000D03*
%TD*%
D20*
%TO.C,R1*%
X82560000Y-135377500D03*
X82560000Y-137202500D03*
%TD*%
%TO.C,R5*%
X84930000Y-147327500D03*
X84930000Y-149152500D03*
%TD*%
D17*
%TO.C,C5*%
X72320000Y-157450000D03*
X72320000Y-155725000D03*
%TD*%
D21*
%TO.C,D2*%
X78820000Y-150867500D03*
X76920000Y-150867500D03*
X77870000Y-148992500D03*
%TD*%
D20*
%TO.C,R4*%
X90090000Y-135377500D03*
X90090000Y-137202500D03*
%TD*%
D15*
%TO.C,C4*%
X92880000Y-110587500D03*
X92880000Y-112312500D03*
%TD*%
D22*
%TO.C,J2*%
X90006218Y-102570482D03*
D23*
X91773985Y-104338249D03*
X93541752Y-106106016D03*
X95309519Y-107873783D03*
%TD*%
D24*
%TO.C,R7*%
X101002500Y-151360000D03*
X99177500Y-151360000D03*
%TD*%
D17*
%TO.C,C3*%
X100330000Y-104412500D03*
X100330000Y-102687500D03*
%TD*%
D25*
%TO.C,J3*%
X77280000Y-158940000D03*
D26*
X79280000Y-158940000D03*
X81280000Y-158940000D03*
X83280000Y-158940000D03*
X85280000Y-158940000D03*
X87280000Y-158940000D03*
X89280000Y-158940000D03*
X91280000Y-158940000D03*
X93280000Y-158940000D03*
X95280000Y-158940000D03*
X97280000Y-158940000D03*
%TD*%
D27*
%TO.C,J6*%
X75330000Y-100600000D03*
D19*
X72830000Y-100600000D03*
X70330000Y-100600000D03*
X67830000Y-100600000D03*
%TD*%
D28*
%TO.C,U1*%
X118970000Y-103630000D03*
X118970000Y-106170000D03*
X118970000Y-108710000D03*
X118970000Y-111250000D03*
X118970000Y-136650000D03*
X103730000Y-106170000D03*
X113890000Y-146810000D03*
X118970000Y-113790000D03*
X118970000Y-116330000D03*
D29*
X115920000Y-107440000D03*
D28*
X118970000Y-118870000D03*
X118970000Y-121410000D03*
X118970000Y-123950000D03*
X118970000Y-126490000D03*
X118970000Y-129030000D03*
X118970000Y-131570000D03*
X118970000Y-134110000D03*
X103730000Y-134110000D03*
X103730000Y-131570000D03*
X103730000Y-129030000D03*
X103730000Y-126490000D03*
X103730000Y-123950000D03*
X103730000Y-121410000D03*
X103730000Y-118870000D03*
X103730000Y-116330000D03*
X103730000Y-113790000D03*
X103730000Y-111250000D03*
X103730000Y-108710000D03*
X118970000Y-139190000D03*
X118970000Y-141730000D03*
X118970000Y-144270000D03*
X118970000Y-146810000D03*
X118970000Y-149350000D03*
X118970000Y-151890000D03*
X118970000Y-154430000D03*
X118970000Y-156970000D03*
X118970000Y-159510000D03*
X103730000Y-159510000D03*
X103730000Y-156970000D03*
X103730000Y-154430000D03*
X103730000Y-151890000D03*
X103730000Y-149350000D03*
X103730000Y-146810000D03*
X103730000Y-144270000D03*
X103730000Y-141730000D03*
X103730000Y-139190000D03*
D29*
X115920000Y-112520000D03*
X115920000Y-109980000D03*
D28*
X118970000Y-101090000D03*
X103730000Y-136650000D03*
X103730000Y-103630000D03*
X111350000Y-146810000D03*
D30*
X108180000Y-116060000D03*
X108180000Y-114060000D03*
D28*
X106270000Y-146810000D03*
X108810000Y-146810000D03*
D30*
X106180000Y-114060000D03*
X106180000Y-116060000D03*
X110180000Y-116060000D03*
X110180000Y-114060000D03*
D29*
X115920000Y-115060000D03*
X115920000Y-117600000D03*
D28*
X116430000Y-146810000D03*
X103730000Y-101090000D03*
X106270000Y-103630000D03*
%TD*%
D24*
%TO.C,R8*%
X101092500Y-153220000D03*
X99267500Y-153220000D03*
%TD*%
D20*
%TO.C,R2*%
X85050000Y-135377500D03*
X85050000Y-137202500D03*
%TD*%
D31*
%TO.C,J1*%
X99250000Y-113390000D03*
D32*
X99250000Y-115890000D03*
X99250000Y-118390000D03*
%TD*%
D33*
%TO.C,FB1*%
X100370000Y-106240000D03*
X100370000Y-108540000D03*
%TD*%
D31*
%TO.C,J4*%
X55220000Y-130130000D03*
D32*
X55220000Y-132630000D03*
X55220000Y-135130000D03*
X55220000Y-137630000D03*
X55220000Y-140130000D03*
%TD*%
D15*
%TO.C,C2*%
X90480000Y-108027500D03*
X90480000Y-109752500D03*
%TD*%
D20*
%TO.C,R6*%
X90000000Y-147217500D03*
X90000000Y-149042500D03*
%TD*%
%TO.C,R3*%
X87570000Y-135385000D03*
X87570000Y-137210000D03*
%TD*%
M02*
