<?xml version="1.0" encoding="UTF-8"?>
<!DOCTYPE svg PUBLIC "-//W3C//DTD SVG 1.1//EN" "http://www.w3.org/Graphics/SVG/1.1/DTD/svg11.dtd">
<svg version="1.2" width="215.9mm" height="279.4mm" viewBox="0 0 21590 27940" preserveAspectRatio="xMidYMid" fill-rule="evenodd" stroke-width="28.222" stroke-linejoin="round" xmlns="http://www.w3.org/2000/svg" xmlns:ooo="http://xml.openoffice.org/svg/export" xmlns:xlink="http://www.w3.org/1999/xlink" xmlns:presentation="http://sun.com/xmlns/staroffice/presentation" xmlns:smil="http://www.w3.org/2001/SMIL20/" xmlns:anim="urn:oasis:names:tc:opendocument:xmlns:animation:1.0" xml:space="preserve">
 <defs class="ClipPathGroup">
  <clipPath id="presentation_clip_path" clipPathUnits="userSpaceOnUse">
   <rect x="0" y="0" width="21590" height="27940"/>
  </clipPath>
  <clipPath id="presentation_clip_path_shrink" clipPathUnits="userSpaceOnUse">
   <rect x="21" y="27" width="21547" height="27885"/>
  </clipPath>
 </defs>
 <defs class="TextShapeIndex">
  <g ooo:slide="id1" ooo:id-list="id3 id4 id5 id6 id7 id8 id9 id10 id11 id12 id13 id14 id15 id16 id17 id18 id19 id20 id21 id22 id23 id24 id25 id26 id27 id28 id29"/>
 </defs>
 <defs class="EmbeddedBulletChars">
  <g id="bullet-char-template-57356" transform="scale(0.00048828125,-0.00048828125)">
   <path d="M 580,1141 L 1163,571 580,0 -4,571 580,1141 Z"/>
  </g>
  <g id="bullet-char-template-57354" transform="scale(0.00048828125,-0.00048828125)">
   <path d="M 8,1128 L 1137,1128 1137,0 8,0 8,1128 Z"/>
  </g>
  <g id="bullet-char-template-10146" transform="scale(0.00048828125,-0.00048828125)">
   <path d="M 174,0 L 602,739 174,1481 1456,739 174,0 Z M 1358,739 L 309,1346 659,739 1358,739 Z"/>
  </g>
  <g id="bullet-char-template-10132" transform="scale(0.00048828125,-0.00048828125)">
   <path d="M 2015,739 L 1276,0 717,0 1260,543 174,543 174,936 1260,936 717,1481 1274,1481 2015,739 Z"/>
  </g>
  <g id="bullet-char-template-10007" transform="scale(0.00048828125,-0.00048828125)">
   <path d="M 0,-2 C -7,14 -16,27 -25,37 L 356,567 C 262,823 215,952 215,954 215,979 228,992 255,992 264,992 276,990 289,987 310,991 331,999 354,1012 L 381,999 492,748 772,1049 836,1024 860,1049 C 881,1039 901,1025 922,1006 886,937 835,863 770,784 769,783 710,716 594,584 L 774,223 C 774,196 753,168 711,139 L 727,119 C 717,90 699,76 672,76 641,76 570,178 457,381 L 164,-76 C 142,-110 111,-127 72,-127 30,-127 9,-110 8,-76 1,-67 -2,-52 -2,-32 -2,-23 -1,-13 0,-2 Z"/>
  </g>
  <g id="bullet-char-template-10004" transform="scale(0.00048828125,-0.00048828125)">
   <path d="M 285,-33 C 182,-33 111,30 74,156 52,228 41,333 41,471 41,549 55,616 82,672 116,743 169,778 240,778 293,778 328,747 346,684 L 369,508 C 377,444 397,411 428,410 L 1163,1116 C 1174,1127 1196,1133 1229,1133 1271,1133 1292,1118 1292,1087 L 1292,965 C 1292,929 1282,901 1262,881 L 442,47 C 390,-6 338,-33 285,-33 Z"/>
  </g>
  <g id="bullet-char-template-9679" transform="scale(0.00048828125,-0.00048828125)">
   <path d="M 813,0 C 632,0 489,54 383,161 276,268 223,411 223,592 223,773 276,916 383,1023 489,1130 632,1184 813,1184 992,1184 1136,1130 1245,1023 1353,916 1407,772 1407,592 1407,412 1353,268 1245,161 1136,54 992,0 813,0 Z"/>
  </g>
  <g id="bullet-char-template-8226" transform="scale(0.00048828125,-0.00048828125)">
   <path d="M 346,457 C 273,457 209,483 155,535 101,586 74,649 74,723 74,796 101,859 155,911 209,963 273,989 346,989 419,989 480,963 531,910 582,859 608,796 608,723 608,648 583,586 532,535 482,483 420,457 346,457 Z"/>
  </g>
  <g id="bullet-char-template-8211" transform="scale(0.00048828125,-0.00048828125)">
   <path d="M -4,459 L 1135,459 1135,606 -4,606 -4,459 Z"/>
  </g>
  <g id="bullet-char-template-61548" transform="scale(0.00048828125,-0.00048828125)">
   <path d="M 173,740 C 173,903 231,1043 346,1159 462,1274 601,1332 765,1332 928,1332 1067,1274 1183,1159 1299,1043 1357,903 1357,740 1357,577 1299,437 1183,322 1067,206 928,148 765,148 601,148 462,206 346,322 231,437 173,577 173,740 Z"/>
  </g>
 </defs>
 <g>
  <g id="id2" class="Master_Slide">
   <g id="bg-id2" class="Background"/>
   <g id="bo-id2" class="BackgroundObjects"/>
  </g>
 </g>
 <g class="SlideGroup">
  <g>
   <g id="container-id1">
    <g id="id1" class="Slide" clip-path="url(#presentation_clip_path)">
     <g class="Page">
      <g class="com.sun.star.drawing.CustomShape">
       <g id="id3">
        <rect class="BoundingBox" stroke="none" fill="none" x="9620" y="11772" width="597" height="590"/>
        <path fill="none" stroke="rgb(0,0,0)" d="M 10215,12072 C 10214,12123 10199,12174 10172,12218 10145,12262 10106,12298 10061,12323 10015,12348 9964,12361 9911,12360 9859,12359 9808,12345 9764,12318 9719,12291 9683,12254 9658,12209 9632,12164 9620,12113 9621,12061 9622,12010 9637,11959 9664,11915 9691,11871 9730,11835 9775,11810 9821,11785 9872,11772 9925,11773 9977,11774 10028,11788 10072,11815 10117,11842 10153,11879 10178,11924 10204,11969 10216,12020 10215,12072 Z"/>
       </g>
      </g>
      <g class="com.sun.star.drawing.CustomShape">
       <g id="id4">
        <rect class="BoundingBox" stroke="none" fill="none" x="10751" y="11672" width="597" height="590"/>
        <path fill="none" stroke="rgb(0,0,0)" d="M 11346,11972 C 11345,12023 11330,12074 11303,12118 11276,12162 11237,12198 11192,12223 11146,12248 11095,12261 11042,12260 10990,12259 10939,12245 10895,12218 10850,12191 10814,12154 10789,12109 10763,12064 10751,12013 10752,11961 10753,11910 10768,11859 10795,11815 10822,11771 10861,11735 10906,11710 10952,11685 11003,11672 11056,11673 11108,11674 11159,11688 11203,11715 11248,11742 11284,11779 11309,11824 11335,11869 11347,11920 11346,11972 Z"/>
       </g>
      </g>
      <g class="com.sun.star.drawing.CustomShape">
       <g id="id5">
        <rect class="BoundingBox" stroke="none" fill="none" x="8676" y="12340" width="597" height="590"/>
        <path fill="none" stroke="rgb(0,0,0)" d="M 9271,12640 C 9270,12691 9255,12742 9228,12786 9201,12830 9162,12866 9117,12891 9071,12916 9020,12929 8967,12928 8915,12927 8864,12913 8820,12886 8775,12859 8739,12822 8714,12777 8688,12732 8676,12681 8677,12629 8678,12578 8693,12527 8720,12483 8747,12439 8786,12403 8831,12378 8877,12353 8928,12340 8981,12341 9033,12342 9084,12356 9128,12383 9173,12410 9209,12447 9234,12492 9260,12537 9272,12588 9271,12640 Z"/>
       </g>
      </g>
      <g class="com.sun.star.drawing.CustomShape">
       <g id="id6">
        <rect class="BoundingBox" stroke="none" fill="none" x="10407" y="12041" width="137" height="139"/>
        <path fill="none" stroke="rgb(0,0,0)" d="M 10542,12111 C 10542,12123 10539,12134 10533,12145 10527,12155 10518,12163 10508,12169 10498,12175 10486,12178 10474,12178 10463,12178 10451,12175 10441,12169 10431,12162 10422,12154 10417,12143 10411,12133 10408,12121 10408,12109 10408,12097 10411,12086 10417,12075 10423,12065 10432,12057 10442,12051 10452,12045 10464,12042 10476,12042 10487,12042 10499,12045 10509,12051 10519,12058 10528,12066 10533,12077 10539,12087 10542,12099 10542,12111 Z"/>
       </g>
      </g>
      <g class="com.sun.star.drawing.CustomShape">
       <g id="id7">
        <rect class="BoundingBox" stroke="none" fill="none" x="10398" y="12690" width="304" height="304"/>
        <path fill="none" stroke="rgb(0,0,0)" d="M 10700,12843 C 10700,12870 10692,12895 10679,12918 10666,12941 10646,12960 10623,12973 10600,12986 10574,12992 10548,12992 10521,12992 10496,12984 10473,12971 10450,12958 10431,12938 10418,12915 10405,12892 10399,12866 10399,12840 10399,12813 10407,12788 10420,12765 10433,12742 10453,12723 10476,12710 10499,12697 10525,12691 10551,12691 10578,12691 10603,12699 10626,12712 10649,12725 10668,12745 10681,12768 10694,12791 10700,12817 10700,12843 Z"/>
       </g>
      </g>
      <g class="com.sun.star.drawing.CustomShape">
       <g id="id8">
        <rect class="BoundingBox" stroke="none" fill="none" x="10296" y="13325" width="683" height="673"/>
        <path fill="none" stroke="rgb(0,0,0)" d="M 10977,13667 C 10976,13726 10959,13783 10928,13834 10897,13884 10853,13926 10800,13954 10748,13983 10689,13997 10629,13996 10570,13995 10512,13978 10460,13948 10409,13918 10368,13875 10339,13823 10310,13772 10296,13714 10297,13655 10298,13596 10315,13539 10346,13488 10377,13438 10421,13396 10474,13368 10526,13339 10585,13325 10645,13326 10704,13327 10762,13344 10814,13374 10865,13404 10906,13447 10935,13499 10964,13550 10978,13608 10977,13667 Z"/>
       </g>
      </g>
      <g class="com.sun.star.drawing.CustomShape">
       <g id="id9">
        <rect class="BoundingBox" stroke="none" fill="none" x="9493" y="14289" width="683" height="673"/>
        <path fill="none" stroke="rgb(0,0,0)" d="M 10174,14631 C 10173,14690 10156,14747 10125,14798 10094,14848 10050,14890 9997,14918 9945,14947 9886,14961 9826,14960 9767,14959 9709,14942 9657,14912 9606,14882 9565,14839 9536,14787 9507,14736 9493,14678 9494,14619 9495,14560 9512,14503 9543,14452 9574,14402 9618,14360 9671,14332 9723,14303 9782,14289 9842,14290 9901,14291 9959,14308 10011,14338 10062,14368 10103,14411 10132,14463 10161,14514 10175,14572 10174,14631 Z"/>
       </g>
      </g>
      <g class="com.sun.star.drawing.CustomShape">
       <g id="id10">
        <rect class="BoundingBox" stroke="none" fill="none" x="11269" y="14133" width="683" height="673"/>
        <path fill="none" stroke="rgb(0,0,0)" d="M 11950,14475 C 11949,14534 11932,14591 11901,14642 11870,14692 11826,14734 11773,14762 11721,14791 11662,14805 11602,14804 11543,14803 11485,14786 11433,14756 11382,14726 11341,14683 11312,14631 11283,14580 11269,14522 11270,14463 11271,14404 11288,14347 11319,14296 11350,14246 11394,14204 11447,14176 11499,14147 11558,14133 11618,14134 11677,14135 11735,14152 11787,14182 11838,14212 11879,14255 11908,14307 11937,14358 11951,14416 11950,14475 Z"/>
       </g>
      </g>
      <g class="com.sun.star.drawing.CustomShape">
       <g id="id11">
        <rect class="BoundingBox" stroke="none" fill="none" x="10465" y="15096" width="683" height="673"/>
        <path fill="none" stroke="rgb(0,0,0)" d="M 11146,15438 C 11145,15497 11128,15554 11097,15605 11066,15655 11022,15697 10969,15725 10917,15754 10858,15768 10798,15767 10739,15766 10681,15749 10629,15719 10578,15689 10537,15646 10508,15594 10479,15543 10465,15485 10466,15426 10467,15367 10484,15310 10515,15259 10546,15209 10590,15167 10643,15139 10695,15110 10754,15096 10814,15097 10873,15098 10931,15115 10983,15145 11034,15175 11075,15218 11104,15270 11133,15321 11147,15379 11146,15438 Z"/>
       </g>
      </g>
      <g class="com.sun.star.drawing.CustomShape">
       <g id="id12">
        <rect class="BoundingBox" stroke="none" fill="none" x="8023" y="13258" width="597" height="590"/>
        <path fill="none" stroke="rgb(0,0,0)" d="M 8618,13558 C 8617,13609 8602,13660 8575,13704 8548,13748 8509,13784 8464,13809 8418,13834 8367,13847 8314,13846 8262,13845 8211,13831 8167,13804 8122,13777 8086,13740 8061,13695 8035,13650 8023,13599 8024,13547 8025,13496 8040,13445 8067,13401 8094,13357 8133,13321 8178,13296 8224,13271 8275,13258 8328,13259 8380,13260 8431,13274 8475,13301 8520,13328 8556,13365 8581,13410 8607,13455 8619,13506 8618,13558 Z"/>
       </g>
      </g>
      <g class="com.sun.star.drawing.CustomShape">
       <g id="id13">
        <rect class="BoundingBox" stroke="none" fill="none" x="8573" y="13022" width="137" height="139"/>
        <path fill="none" stroke="rgb(0,0,0)" d="M 8708,13092 C 8708,13104 8705,13115 8699,13126 8693,13136 8684,13144 8674,13150 8664,13156 8652,13159 8640,13159 8629,13159 8617,13156 8607,13150 8597,13143 8588,13135 8583,13124 8577,13114 8574,13102 8574,13090 8574,13078 8577,13067 8583,13056 8589,13046 8598,13038 8608,13032 8618,13026 8630,13023 8642,13023 8653,13023 8665,13026 8675,13032 8685,13039 8694,13047 8699,13058 8705,13068 8708,13080 8708,13092 Z"/>
       </g>
      </g>
      <g class="com.sun.star.drawing.CustomShape">
       <g id="id14">
        <rect class="BoundingBox" stroke="none" fill="none" x="8061" y="14341" width="304" height="304"/>
        <path fill="none" stroke="rgb(0,0,0)" d="M 8363,14494 C 8363,14521 8355,14546 8342,14569 8329,14592 8309,14611 8286,14624 8263,14637 8237,14643 8211,14643 8184,14643 8159,14635 8136,14622 8113,14609 8094,14589 8081,14566 8068,14543 8062,14517 8062,14491 8062,14464 8070,14439 8083,14416 8096,14393 8116,14374 8139,14361 8162,14348 8188,14342 8214,14342 8241,14342 8266,14350 8289,14363 8312,14376 8331,14396 8344,14419 8357,14442 8363,14468 8363,14494 Z"/>
       </g>
      </g>
      <g class="com.sun.star.drawing.CustomShape">
       <g id="id15">
        <rect class="BoundingBox" stroke="none" fill="none" x="8216" y="15118" width="137" height="139"/>
        <path fill="none" stroke="rgb(0,0,0)" d="M 8351,15188 C 8351,15200 8348,15211 8342,15222 8336,15232 8327,15240 8317,15246 8307,15252 8295,15255 8283,15255 8272,15255 8260,15252 8250,15246 8240,15239 8231,15231 8226,15220 8220,15210 8217,15198 8217,15186 8217,15174 8220,15163 8226,15152 8232,15142 8241,15134 8251,15128 8261,15122 8273,15119 8285,15119 8296,15119 8308,15122 8318,15128 8328,15135 8337,15143 8342,15154 8348,15164 8351,15176 8351,15188 Z"/>
       </g>
      </g>
      <g class="com.sun.star.drawing.CustomShape">
       <g id="id16">
        <rect class="BoundingBox" stroke="none" fill="none" x="8760" y="16387" width="137" height="139"/>
        <path fill="none" stroke="rgb(0,0,0)" d="M 8895,16457 C 8895,16469 8892,16480 8886,16491 8880,16501 8871,16509 8861,16515 8851,16521 8839,16524 8827,16524 8816,16524 8804,16521 8794,16515 8784,16508 8775,16500 8770,16489 8764,16479 8761,16467 8761,16455 8761,16443 8764,16432 8770,16421 8776,16411 8785,16403 8795,16397 8805,16391 8817,16388 8829,16388 8840,16388 8852,16391 8862,16397 8872,16404 8881,16412 8886,16423 8892,16433 8895,16445 8895,16457 Z"/>
       </g>
      </g>
      <g class="com.sun.star.drawing.CustomShape">
       <g id="id17">
        <rect class="BoundingBox" stroke="none" fill="none" x="10244" y="16217" width="304" height="304"/>
        <path fill="none" stroke="rgb(0,0,0)" d="M 10546,16370 C 10546,16397 10538,16422 10525,16445 10512,16468 10492,16487 10469,16500 10446,16513 10420,16519 10394,16519 10367,16519 10342,16511 10319,16498 10296,16485 10277,16465 10264,16442 10251,16419 10245,16393 10245,16367 10245,16340 10253,16315 10266,16292 10279,16269 10299,16250 10322,16237 10345,16224 10371,16218 10397,16218 10424,16218 10449,16226 10472,16239 10495,16252 10514,16272 10527,16295 10540,16318 10546,16344 10546,16370 Z"/>
       </g>
      </g>
      <g class="com.sun.star.drawing.CustomShape">
       <g id="id18">
        <rect class="BoundingBox" stroke="none" fill="none" x="8021" y="15695" width="597" height="590"/>
        <path fill="none" stroke="rgb(0,0,0)" d="M 8616,15995 C 8615,16046 8600,16097 8573,16141 8546,16185 8507,16221 8462,16246 8416,16271 8365,16284 8312,16283 8260,16282 8209,16268 8165,16241 8120,16214 8084,16177 8059,16132 8033,16087 8021,16036 8022,15984 8023,15933 8038,15882 8065,15838 8092,15794 8131,15758 8176,15733 8222,15708 8273,15695 8326,15696 8378,15697 8429,15711 8473,15738 8518,15765 8554,15802 8579,15847 8605,15892 8617,15943 8616,15995 Z"/>
       </g>
      </g>
      <g class="com.sun.star.drawing.CustomShape">
       <g id="id19">
        <rect class="BoundingBox" stroke="none" fill="none" x="9051" y="16653" width="597" height="590"/>
        <path fill="none" stroke="rgb(0,0,0)" d="M 9646,16953 C 9645,17004 9630,17055 9603,17099 9576,17143 9537,17179 9492,17204 9446,17229 9395,17242 9342,17241 9290,17240 9239,17226 9195,17199 9150,17172 9114,17135 9089,17090 9063,17045 9051,16994 9052,16942 9053,16891 9068,16840 9095,16796 9122,16752 9161,16716 9206,16691 9252,16666 9303,16653 9356,16654 9408,16655 9459,16669 9503,16696 9548,16723 9584,16760 9609,16805 9635,16850 9647,16901 9646,16953 Z"/>
       </g>
      </g>
      <g class="com.sun.star.drawing.CustomShape">
       <g id="id20">
        <rect class="BoundingBox" stroke="none" fill="none" x="12455" y="12635" width="137" height="139"/>
        <path fill="none" stroke="rgb(0,0,0)" d="M 12590,12705 C 12590,12717 12587,12728 12581,12739 12575,12749 12566,12757 12556,12763 12546,12769 12534,12772 12522,12772 12511,12772 12499,12769 12489,12763 12479,12756 12470,12748 12465,12737 12459,12727 12456,12715 12456,12703 12456,12691 12459,12680 12465,12669 12471,12659 12480,12651 12490,12645 12500,12639 12512,12636 12524,12636 12535,12636 12547,12639 12557,12645 12567,12652 12576,12660 12581,12671 12587,12681 12590,12693 12590,12705 Z"/>
       </g>
      </g>
      <g class="com.sun.star.drawing.CustomShape">
       <g id="id21">
        <rect class="BoundingBox" stroke="none" fill="none" x="12384" y="13884" width="304" height="304"/>
        <path fill="none" stroke="rgb(0,0,0)" d="M 12686,14037 C 12686,14064 12678,14089 12665,14112 12652,14135 12632,14154 12609,14167 12586,14180 12560,14186 12534,14186 12507,14186 12482,14178 12459,14165 12436,14152 12417,14132 12404,14109 12391,14086 12385,14060 12385,14034 12385,14007 12393,13982 12406,13959 12419,13936 12439,13917 12462,13904 12485,13891 12511,13885 12537,13885 12564,13885 12589,13893 12612,13906 12635,13919 12654,13939 12667,13962 12680,13985 12686,14011 12686,14037 Z"/>
       </g>
      </g>
      <g class="com.sun.star.drawing.CustomShape">
       <g id="id22">
        <rect class="BoundingBox" stroke="none" fill="none" x="11791" y="12050" width="597" height="590"/>
        <path fill="none" stroke="rgb(0,0,0)" d="M 12386,12350 C 12385,12401 12370,12452 12343,12496 12316,12540 12277,12576 12232,12601 12186,12626 12135,12639 12082,12638 12030,12637 11979,12623 11935,12596 11890,12569 11854,12532 11829,12487 11803,12442 11791,12391 11792,12339 11793,12288 11808,12237 11835,12193 11862,12149 11901,12113 11946,12088 11992,12063 12043,12050 12096,12051 12148,12052 12199,12066 12243,12093 12288,12120 12324,12157 12349,12202 12375,12247 12387,12298 12386,12350 Z"/>
       </g>
      </g>
      <g class="com.sun.star.drawing.CustomShape">
       <g id="id23">
        <rect class="BoundingBox" stroke="none" fill="none" x="12596" y="12814" width="597" height="590"/>
        <path fill="none" stroke="rgb(0,0,0)" d="M 13191,13114 C 13190,13165 13175,13216 13148,13260 13121,13304 13082,13340 13037,13365 12991,13390 12940,13403 12887,13402 12835,13401 12784,13387 12740,13360 12695,13333 12659,13296 12634,13251 12608,13206 12596,13155 12597,13103 12598,13052 12613,13001 12640,12957 12667,12913 12706,12877 12751,12852 12797,12827 12848,12814 12901,12815 12953,12816 13004,12830 13048,12857 13093,12884 13129,12921 13154,12966 13180,13011 13192,13062 13191,13114 Z"/>
       </g>
      </g>
      <g class="com.sun.star.drawing.CustomShape">
       <g id="id24">
        <rect class="BoundingBox" stroke="none" fill="none" x="12793" y="14708" width="597" height="590"/>
        <path fill="none" stroke="rgb(0,0,0)" d="M 13388,15008 C 13387,15059 13372,15110 13345,15154 13318,15198 13279,15234 13234,15259 13188,15284 13137,15297 13084,15296 13032,15295 12981,15281 12937,15254 12892,15227 12856,15190 12831,15145 12805,15100 12793,15049 12794,14997 12795,14946 12810,14895 12837,14851 12864,14807 12903,14771 12948,14746 12994,14721 13045,14708 13098,14709 13150,14710 13201,14724 13245,14751 13290,14778 13326,14815 13351,14860 13377,14905 13389,14956 13388,15008 Z"/>
       </g>
      </g>
      <g class="com.sun.star.drawing.CustomShape">
       <g id="id25">
        <rect class="BoundingBox" stroke="none" fill="none" x="12937" y="14189" width="137" height="139"/>
        <path fill="none" stroke="rgb(0,0,0)" d="M 13072,14259 C 13072,14271 13069,14282 13063,14293 13057,14303 13048,14311 13038,14317 13028,14323 13016,14326 13004,14326 12993,14326 12981,14323 12971,14317 12961,14310 12952,14302 12947,14291 12941,14281 12938,14269 12938,14257 12938,14245 12941,14234 12947,14223 12953,14213 12962,14205 12972,14199 12982,14193 12994,14190 13006,14190 13017,14190 13029,14193 13039,14199 13049,14206 13058,14214 13063,14225 13069,14235 13072,14247 13072,14259 Z"/>
       </g>
      </g>
      <g class="com.sun.star.drawing.CustomShape">
       <g id="id26">
        <rect class="BoundingBox" stroke="none" fill="none" x="12125" y="15697" width="304" height="304"/>
        <path fill="none" stroke="rgb(0,0,0)" d="M 12427,15850 C 12427,15877 12419,15902 12406,15925 12393,15948 12373,15967 12350,15980 12327,15993 12301,15999 12275,15999 12248,15999 12223,15991 12200,15978 12177,15965 12158,15945 12145,15922 12132,15899 12126,15873 12126,15847 12126,15820 12134,15795 12147,15772 12160,15749 12180,15730 12203,15717 12226,15704 12252,15698 12278,15698 12305,15698 12330,15706 12353,15719 12376,15732 12395,15752 12408,15775 12421,15798 12427,15824 12427,15850 Z"/>
       </g>
      </g>
      <g class="com.sun.star.drawing.CustomShape">
       <g id="id27">
        <rect class="BoundingBox" stroke="none" fill="none" x="11562" y="16406" width="1885" height="731"/>
        <path fill="none" stroke="rgb(0,0,0)" d="M 12510,17119 L 11575,17135 11563,16440 13433,16407 13445,17102 12510,17119 Z"/>
       </g>
      </g>
      <g class="com.sun.star.drawing.CustomShape">
       <g id="id28">
        <rect class="BoundingBox" stroke="none" fill="none" x="12802" y="16575" width="137" height="139"/>
        <path fill="none" stroke="rgb(0,0,0)" d="M 12937,16645 C 12937,16657 12934,16668 12928,16679 12922,16689 12913,16697 12903,16703 12893,16709 12881,16712 12869,16712 12858,16712 12846,16709 12836,16703 12826,16696 12817,16688 12812,16677 12806,16667 12803,16655 12803,16643 12803,16631 12806,16620 12812,16609 12818,16599 12827,16591 12837,16585 12847,16579 12859,16576 12871,16576 12882,16576 12894,16579 12904,16585 12914,16592 12923,16600 12928,16611 12934,16621 12937,16633 12937,16645 Z"/>
       </g>
      </g>
      <g class="com.sun.star.drawing.PolyLineShape">
       <g id="id29">
        <rect class="BoundingBox" stroke="none" fill="none" x="7546" y="11164" width="6640" height="6287"/>
        <path fill="none" stroke="rgb(0,0,0)" d="M 13504,17419 L 14184,16688 14170,14531 14062,13609 13887,13105 13593,12512 13175,12031 12879,11773 12278,11412 12230,11412 12190,11465 12122,11535 12024,11568 11957,11594 11821,11582 11729,11532 11591,11409 11549,11297 11544,11204 11533,11165 10007,11170 9762,11287 9327,11476 9336,11584 9349,11645 9313,11704 9273,11780 9213,11823 9170,11853 9094,11888 9012,11909 8927,11914 8845,11897 8781,11877 8745,11851 8732,11851 8428,12132 8181,12453 7985,12789 7824,13125 7680,13508 7594,13877 7551,14371 7554,14988 7563,16079 7547,16810 8234,17449 13507,17409"/>
       </g>
      </g>
     </g>
    </g>
   </g>
  </g>
 </g>
</svg>